/* XPM */
static char *bitcoin64[] = {
/* columns rows colors chars-per-pixel */
"64 64 3 1 ",
"  c #020202",
". c #FAAF40",
"X c None",
/* pixels */
"XXXXXXXXXXXXXXXXXXXXXXXXXXXXXXXXXXXXXXXXXXXXXXXXXXXXXXXXXXXXXXXX",
"XXXXXXXXXXXXXXXXXXXXXXXXXXXXXXXXXXXXXXXXXXXXXXXXXXXXXXXXXXXXXXXX",
"XXXXXXXXXXXXXXXXXXXXXXXXXXXXXXXXXXXXXXXXXXXXXXXXXXXXXXXXXXXXXXXX",
"XXXXXXXXXXXXXXXXXXXXXXXXXXXXXXXXXXXXXXXXXXXXXXXXXXXXXXXXXXXXXXXX",
"XXXXXXXXXXXXXXXXXXX.XXXXXXXXXXXXXXXXXXXXXXXXXXXXXXXXXXXXXXXXXXXX",
"XXXXXXXXXXXXXXXXXXX..XXXXXXXXXXXXXXXXXXXXXXXXXXXXXXXXXXXXXXXXXXX",
"XXXXXXXXXXXXXXXXXXX..XXXXXXXXXXXXXXXXXXXXXXXXXXXXXXXXXXXXXXXXXXX",
"XXXXXXXXXXXXXXXXXXX...XXXX           XXXXXXXXXXXXXXXXXXXXXXXXXXX",
"XXXXXXXXXXXXXXXXXXX...XXXX              XXXXXXXXXXXXXXXXXXXXXXXX",
"XXXXXXXXXXXXXXXXXXX...XXXX                 XXXXXXXXXXXXXXXXXXXXX",
"XXXXXXXXXXXXXXXXXXX...XXXX                  XXXXXXXXXXXXXXXXXXXX",
"XXXXXXXXXXXXXXXXXXX....XXXX                   XXXXXXXXXXXXXXXXXX",
"XXXXXXXXXXXXXX XXXX....XXXX                XXXXXXXXXXXXXXXXXXXXX",
"XXXXXXXXXXXX   XXXX....XXXX             XXXXXXXXXXXXXXXXXXXXXXXX",
"XXXXXXXXXXX    XXXX....XXXX           XXXXXXXXXXXXXX........XXXX",
"XXXXXXXXXX     XXXX....XXXX         XXXXXXXXXXX..........XXXXXXX",
"XXXXXXXXXX     XXXX.....XXXX      XXXXXXXXXX...........XXXXXXXXX",
"XXXXXXXXX      XXXX.....XXXX     XXXXXXXX............XXXXXXXXXXX",
"XXXXXXXX       XXXX.....XXXX   XXXXXXXX............XXXXXXXXXXXXX",
"XXXXXXX       XXXX......XXXX  XXXXXXX............XXXXXXXXXXXXXXX",
"XXXXXXX       XXXX......XXXX XXXXXX............XXXXXXXXXXXXXXXXX",
"XXXXXX        XXXX......XXXXXXXXXX...........XXXXXXXX  XXXXXXXXX",
"XXXXXX        XXXX......XXXXXXXXX...........XXXXXXX    XXXXXXXXX",
"XXXXX         XXXX......XXXXXXX...........XXXXXXX       XXXXXXXX",
"XXXXX         XXXX......XXXXXX...........XXXXXXX        XXXXXXXX",
"XXXXX        XXXX.......XXXXX...........XXXXXX          XXXXXXXX",
"XXXX         XXXX.......XXXX..........XXXXXXX            XXXXXXX",
"XXXX         XXXX.......XXX..........XXXXXX              XXXXXXX",
"XXXX         XXXX.......XX..........XXXXXX               XXXXXXX",
"XXXX        XXXX........X..........XXXXXX                XXXXXXX",
"XXXX        XXXX........X..........XXXXX                 XXXXXXX",
"XXX         XXXX..................XXXXX                   XXXXXX",
"XXX         XXXX.................XXXXXX                   XXXXXX",
"XXX        XXXX..................XXXXXXX                  XXXXXX",
"XXX        XXXX.................XXXXXXXXXX                XXXXXX",
"XXX        XXXX....................XXXXXXXX               XXXXXX",
"XXX       XXXX........................XXXXXX             XXXXXXX",
"XXXX      XXXX.........................XXXXXX            XXXXXXX",
"XXXX      XXXX..........................XXXXXX           XXXXXXX",
"XXXX     XXXX.............................XXXXX          XXXXXXX",
"XXXX     XXXX..............................XXXX          XXXXXXX",
"XXXX    XXXXX..............................XXXXX        XXXXXXXX",
"XXXXX   XXXX..........XXXXX.................XXXXX       XXXXXXXX",
"XXXXX  XXXXX........XXXXXXXXXXXXX............XXXX       XXXXXXXX",
"XXXXXX XXXX........XXXXXXXXXXXXXXXX..........XXXXX     XXXXXXXXX",
"XXXXXXXXXXX........XXXXXXXXXXXXXXXXXX.........XXXX     XXXXXXXXX",
"XXXXXXXXXX........XXXXX     XXXXXXXXXXX.......XXXX    XXXXXXXXXX",
"XXXXXXXXXX.......XXXXX          XXXXXXXX.......XXXX   XXXXXXXXXX",
"XXXXXXXXX.......XXXXX              XXXXXXX.....XXXX  XXXXXXXXXXX",
"XXXXXXXXX......XXXXX                XXXXXXX....XXXX  XXXXXXXXXXX",
"XXXXXXXX......XXXXXX                  XXXXXX....XXXXXXXXXXXXXXXX",
"XXXXXXXX.....XXXXXX                    XXXXX....XXXXXXXXXXXXXXXX",
"XXXXXXX.....XXXXXX                      XXXXX...XXXXXXXXXXXXXXXX",
"XXXXXX....XXXXXXX                        XXXXX..XXXXXXXXXXXXXXXX",
"XXXXXX...XXXXXX                           XXXX..XXXXXXXXXXXXXXXX",
"XXXXX...XXXXXXX                           XXXXX.XXXXXXXXXXXXXXXX",
"XXXX..XXXXXXXXXX                           XXXX.XXXXXXXXXXXXXXXX",
"XXXXXXXXXXXXXXXXX                          XXXXXXXXXXXXXXXXXXXXX",
"XXXXXXXXXXXXXXXXXXX                       XXXXXXXXXXXXXXXXXXXXXX",
"XXXXXXXXXXXXXXXXXXXXXX                 XXXXXXXXXXXXXXXXXXXXXXXXX",
"XXXXXXXXXXXXXXXXXXXXXXXXXX         XXXXXXXXXXXXXXXXXXXXXXXXXXXXX",
"XXXXXXXXXXXXXXXXXXXXXXXXXXXXXXXXXXXXXXXXXXXXXXXXXXXXXXXXXXXXXXXX",
"XXXXXXXXXXXXXXXXXXXXXXXXXXXXXXXXXXXXXXXXXXXXXXXXXXXXXXXXXXXXXXXX",
"XXXXXXXXXXXXXXXXXXXXXXXXXXXXXXXXXXXXXXXXXXXXXXXXXXXXXXXXXXXXXXXX"
};
