/* XPM */
static char *bitcoin32[] = {
/* columns rows colors chars-per-pixel */
"32 32 3 1 ",
"  c #020202",
". c #FAAF40",
"X c None",
/* pixels */
"XXXXXXXXXXXXXXXXXXXXXXXXXXXXXXXX",
"XXXXXXXXXXXXXXXXXXXXXXXXXXXXXXXX",
"XXXXXXXXXXXXXXXXXXXXXXXXXXXXXXXX",
"XXXXXXXXXX.XX    XXXXXXXXXXXXXXX",
"XXXXXXXXXX.XX        XXXXXXXXXXX",
"XXXXXXXXXX.XX          XXXXXXXXX",
"XXXXXXX XX..XX       XXXXXXXXXXX",
"XXXXX  XX...XX     XXXXXX....XXX",
"XXXXX  XX...XX   XXXX......XXXXX",
"XXXX   XX...XX XXXX......XXXXXXX",
"XXX    XX...XXXXX......XXXXXXXXX",
"XXX    XX...XXXX.....XXXX   XXXX",
"XX     XX...XXX.....XXX     XXXX",
"XX     XX...XX.....XXX      XXXX",
"XX    XX....X.....XXX        XXX",
"XX    XX.........XXX         XXX",
"XX    XX........XXXX         XXX",
"XX   XX..........XXXX        XXX",
"XX   XX............XXX       XXX",
"XX   XX..............XX      XXX",
"XX  XX...............XXX    XXXX",
"XX  XX....XXXXX.......XX    XXXX",
"XXXXXX...XXXXXXXXX.....XX   XXXX",
"XXXXX....XX    XXXXX...XX  XXXXX",
"XXXXX...XX        XXX...XXXXXXXX",
"XXXX...XXX         XXX..XXXXXXXX",
"XXX...XXX           XXX.XXXXXXXX",
"XXX.XXX              XX.XXXXXXXX",
"XXXXXXXX              XXXXXXXXXX",
"XXXXXXXXXX          XXXXXXXXXXXX",
"XXXXXXXXXXXXXXXXXXXXXXXXXXXXXXXX",
"XXXXXXXXXXXXXXXXXXXXXXXXXXXXXXXX"
};
