/* XPM */
static char *bitcoin128[] = {
/* columns rows colors chars-per-pixel */
"128 128 3 1 ",
"  c #020202",
". c #FAAF40",
"X c None",
/* pixels */
"XXXXXXXXXXXXXXXXXXXXXXXXXXXXXXXXXXXXXXXXXXXXXXXXXXXXXXXXXXXXXXXXXXXXXXXXXXXXXXXXXXXXXXXXXXXXXXXXXXXXXXXXXXXXXXXXXXXXXXXXXXXXXXXX",
"XXXXXXXXXXXXXXXXXXXXXXXXXXXXXXXXXXXXXXXXXXXXXXXXXXXXXXXXXXXXXXXXXXXXXXXXXXXXXXXXXXXXXXXXXXXXXXXXXXXXXXXXXXXXXXXXXXXXXXXXXXXXXXXX",
"XXXXXXXXXXXXXXXXXXXXXXXXXXXXXXXXXXXXXXXXXXXXXXXXXXXXXXXXXXXXXXXXXXXXXXXXXXXXXXXXXXXXXXXXXXXXXXXXXXXXXXXXXXXXXXXXXXXXXXXXXXXXXXXX",
"XXXXXXXXXXXXXXXXXXXXXXXXXXXXXXXXXXXXXXXXXXXXXXXXXXXXXXXXXXXXXXXXXXXXXXXXXXXXXXXXXXXXXXXXXXXXXXXXXXXXXXXXXXXXXXXXXXXXXXXXXXXXXXXX",
"XXXXXXXXXXXXXXXXXXXXXXXXXXXXXXXXXXXXXXXXXXXXXXXXXXXXXXXXXXXXXXXXXXXXXXXXXXXXXXXXXXXXXXXXXXXXXXXXXXXXXXXXXXXXXXXXXXXXXXXXXXXXXXXX",
"XXXXXXXXXXXXXXXXXXXXXXXXXXXXXXXXXXXXXXXXXXXXXXXXXXXXXXXXXXXXXXXXXXXXXXXXXXXXXXXXXXXXXXXXXXXXXXXXXXXXXXXXXXXXXXXXXXXXXXXXXXXXXXXX",
"XXXXXXXXXXXXXXXXXXXXXXXXXXXXXXXXXXXXXXXXXXXXXXXXXXXXXXXXXXXXXXXXXXXXXXXXXXXXXXXXXXXXXXXXXXXXXXXXXXXXXXXXXXXXXXXXXXXXXXXXXXXXXXXX",
"XXXXXXXXXXXXXXXXXXXXXXXXXXXXXXXXXXXXXXX.XXXXXXXXXXXXXXXXXXXXXXXXXXXXXXXXXXXXXXXXXXXXXXXXXXXXXXXXXXXXXXXXXXXXXXXXXXXXXXXXXXXXXXXX",
"XXXXXXXXXXXXXXXXXXXXXXXXXXXXXXXXXXXXXXX.XXXXXXXXXXXXXXXXXXXXXXXXXXXXXXXXXXXXXXXXXXXXXXXXXXXXXXXXXXXXXXXXXXXXXXXXXXXXXXXXXXXXXXXX",
"XXXXXXXXXXXXXXXXXXXXXXXXXXXXXXXXXXXXXXX..XXXXXXXXXXXXXXXXXXXXXXXXXXXXXXXXXXXXXXXXXXXXXXXXXXXXXXXXXXXXXXXXXXXXXXXXXXXXXXXXXXXXXXX",
"XXXXXXXXXXXXXXXXXXXXXXXXXXXXXXXXXXXXXXX..XXXXXXXXXXXXXXXXXXXXXXXXXXXXXXXXXXXXXXXXXXXXXXXXXXXXXXXXXXXXXXXXXXXXXXXXXXXXXXXXXXXXXXX",
"XXXXXXXXXXXXXXXXXXXXXXXXXXXXXXXXXXXXXXX...XXXXXXXXXXXXXXXXXXXXXXXXXXXXXXXXXXXXXXXXXXXXXXXXXXXXXXXXXXXXXXXXXXXXXXXXXXXXXXXXXXXXXX",
"XXXXXXXXXXXXXXXXXXXXXXXXXXXXXXXXXXXXXXX...XXXXXXXXXXXXXXXXXXXXXXXXXXXXXXXXXXXXXXXXXXXXXXXXXXXXXXXXXXXXXXXXXXXXXXXXXXXXXXXXXXXXXX",
"XXXXXXXXXXXXXXXXXXXXXXXXXXXXXXXXXXXXXXX...XXXXXXXXXXXXXX          XXXXXXXXXXXXXXXXXXXXXXXXXXXXXXXXXXXXXXXXXXXXXXXXXXXXXXXXXXXXXX",
"XXXXXXXXXXXXXXXXXXXXXXXXXXXXXXXXXXXXXXX....XXXXXXXX                     XXXXXXXXXXXXXXXXXXXXXXXXXXXXXXXXXXXXXXXXXXXXXXXXXXXXXXXX",
"XXXXXXXXXXXXXXXXXXXXXXXXXXXXXXXXXXXXXXX....XXXXXXXX                         XXXXXXXXXXXXXXXXXXXXXXXXXXXXXXXXXXXXXXXXXXXXXXXXXXXX",
"XXXXXXXXXXXXXXXXXXXXXXXXXXXXXXXXXXXXXXX.....XXXXXXXX                           XXXXXXXXXXXXXXXXXXXXXXXXXXXXXXXXXXXXXXXXXXXXXXXXX",
"XXXXXXXXXXXXXXXXXXXXXXXXXXXXXXXXXXXXXXX.....XXXXXXXX                              XXXXXXXXXXXXXXXXXXXXXXXXXXXXXXXXXXXXXXXXXXXXXX",
"XXXXXXXXXXXXXXXXXXXXXXXXXXXXXXXXXXXXXXX.....XXXXXXXX                                XXXXXXXXXXXXXXXXXXXXXXXXXXXXXXXXXXXXXXXXXXXX",
"XXXXXXXXXXXXXXXXXXXXXXXXXXXXXXXXXXXXXXX.....XXXXXXXXX                                 XXXXXXXXXXXXXXXXXXXXXXXXXXXXXXXXXXXXXXXXXX",
"XXXXXXXXXXXXXXXXXXXXXXXXXXXXXXXXXXXXXX.......XXXXXXXX                                   XXXXXXXXXXXXXXXXXXXXXXXXXXXXXXXXXXXXXXXX",
"XXXXXXXXXXXXXXXXXXXXXXXXXXXXXXXXXXXXXX.......XXXXXXXX                                     XXXXXXXXXXXXXXXXXXXXXXXXXXXXXXXXXXXXXX",
"XXXXXXXXXXXXXXXXXXXXXXXXXXXXXXXXXXXXXX.......XXXXXXXX                                      XXXXXXXXXXXXXXXXXXXXXXXXXXXXXXXXXXXXX",
"XXXXXXXXXXXXXXXXXXXXXXXXXXXXX XXXXXXXX.......XXXXXXXXX                                     XXXXXXXXXXXXXXXXXXXXXXXXXXXXXXXXXXXXX",
"XXXXXXXXXXXXXXXXXXXXXXXXXXXX  XXXXXXXX........XXXXXXXX                                  XXXXXXXXXXXXXXXXXXXXXXXXXXXXXXXXXXXXXXXX",
"XXXXXXXXXXXXXXXXXXXXXXXXXXX   XXXXXXXX........XXXXXXXX                               XXXXXXXXXXXXXXXXXXXXXXXXXXXXXXXXXXXXXXXXXXX",
"XXXXXXXXXXXXXXXXXXXXXXXXXX    XXXXXXXX........XXXXXXXX                            XXXXXXXXXXXXXXXXXXXXXXXXXXXXXXXXXXXXXXXXXXXXXX",
"XXXXXXXXXXXXXXXXXXXXXXXX      XXXXXXXX........XXXXXXXX                          XXXXXXXXXXXXXXXXXXXXXXXXXXXXXXXXXXXXXXXXXXXXXXXX",
"XXXXXXXXXXXXXXXXXXXXXXX       XXXXXXXX........XXXXXXXX                       XXXXXXXXXXXXXXXXXXXXXXXXXXXXXXXXX..........XXXXXXXX",
"XXXXXXXXXXXXXXXXXXXXXX        XXXXXXXX.........XXXXXXXX                    XXXXXXXXXXXXXXXXXXXXXXXXXX..................XXXXXXXXX",
"XXXXXXXXXXXXXXXXXXXXX         XXXXXXXX.........XXXXXXXX                  XXXXXXXXXXXXXXXXXXXXXXX....................XXXXXXXXXXXX",
"XXXXXXXXXXXXXXXXXXXX          XXXXXXXX.........XXXXXXXX                XXXXXXXXXXXXXXXXXXXXX......................XXXXXXXXXXXXXX",
"XXXXXXXXXXXXXXXXXXXX          XXXXXXXX.........XXXXXXXX               XXXXXXXXXXXXXXXXXXX......................XXXXXXXXXXXXXXXXX",
"XXXXXXXXXXXXXXXXXXX           XXXXXXX..........XXXXXXXX             XXXXXXXXXXXXXXXXXX.......................XXXXXXXXXXXXXXXXXXX",
"XXXXXXXXXXXXXXXXXX           XXXXXXXX..........XXXXXXXX           XXXXXXXXXXXXXXXXX.......................XXXXXXXXXXXXXXXXXXXXXX",
"XXXXXXXXXXXXXXXXX            XXXXXXXX..........XXXXXXXX          XXXXXXXXXXXXXXXX.......................XXXXXXXXXXXXXXXXXXXXXXXX",
"XXXXXXXXXXXXXXXXX            XXXXXXXX...........XXXXXXX        XXXXXXXXXXXXXXXX.......................XXXXXXXXXXXXXXXXXXXXXXXXXX",
"XXXXXXXXXXXXXXXX             XXXXXXXX...........XXXXXXXX      XXXXXXXXXXXXXXX.......................XXXXXXXXXXXXXXXXXXXXXXXXXXXX",
"XXXXXXXXXXXXXXX              XXXXXXXX...........XXXXXXXX     XXXXXXXXXXXXXX.......................XXXXXXXXXXXXXXXXXXXXXXXXXXXXXX",
"XXXXXXXXXXXXXXX              XXXXXXXX...........XXXXXXXX   XXXXXXXXXXXXXX.......................XXXXXXXXXXXXXXXXXXXXXXXXXXXXXXXX",
"XXXXXXXXXXXXXX               XXXXXXXX...........XXXXXXXX  XXXXXXXXXXXXXX......................XXXXXXXXXXXXXXXXXXXXXXXXXXXXXXXXXX",
"XXXXXXXXXXXXX               XXXXXXXX............XXXXXXXX XXXXXXXXXXXXX.......................XXXXXXXXXXXXXXXXXXXXXXXXXXXXXXXXXXX",
"XXXXXXXXXXXXX               XXXXXXXX............XXXXXXXXXXXXXXXXXXXX.......................XXXXXXXXXXXXXXXXX XXXXXXXXXXXXXXXXXXX",
"XXXXXXXXXXXX                XXXXXXXX............XXXXXXXXXXXXXXXXXXX......................XXXXXXXXXXXXXXXXX    XXXXXXXXXXXXXXXXXX",
"XXXXXXXXXXXX                XXXXXXXX............XXXXXXXXXXXXXXXXXX......................XXXXXXXXXXXXXXXX      XXXXXXXXXXXXXXXXXX",
"XXXXXXXXXXX                 XXXXXXXX............XXXXXXXXXXXXXXXX......................XXXXXXXXXXXXXXXX         XXXXXXXXXXXXXXXXX",
"XXXXXXXXXXX                 XXXXXXXX............XXXXXXXXXXXXXXX......................XXXXXXXXXXXXXXX           XXXXXXXXXXXXXXXXX",
"XXXXXXXXXXX                XXXXXXXX.............XXXXXXXXXXXXXX......................XXXXXXXXXXXXXX             XXXXXXXXXXXXXXXXX",
"XXXXXXXXXX                 XXXXXXXX.............XXXXXXXXXXXXX.....................XXXXXXXXXXXXXX                XXXXXXXXXXXXXXXX",
"XXXXXXXXXX                 XXXXXXXX.............XXXXXXXXXXXX.....................XXXXXXXXXXXXXX                 XXXXXXXXXXXXXXXX",
"XXXXXXXXX                  XXXXXXXX.............XXXXXXXXXXX.....................XXXXXXXXXXXXX                   XXXXXXXXXXXXXXXX",
"XXXXXXXXX                  XXXXXXXX.............XXXXXXXXXX.....................XXXXXXXXXXXXX                     XXXXXXXXXXXXXXX",
"XXXXXXXXX                 XXXXXXXX..............XXXXXXXXX....................XXXXXXXXXXXXX                       XXXXXXXXXXXXXXX",
"XXXXXXXXX                 XXXXXXXX..............XXXXXXXX....................XXXXXXXXXXXXX                        XXXXXXXXXXXXXXX",
"XXXXXXXX                  XXXXXXXX..............XXXXXXX....................XXXXXXXXXXXX                           XXXXXXXXXXXXXX",
"XXXXXXXX                  XXXXXXXX..............XXXXXX....................XXXXXXXXXXXX                            XXXXXXXXXXXXXX",
"XXXXXXXX                 XXXXXXXXX..............XXXXX....................XXXXXXXXXXXX                             XXXXXXXXXXXXXX",
"XXXXXXXX                 XXXXXXXX...............XXXX....................XXXXXXXXXXXX                              XXXXXXXXXXXXXX",
"XXXXXXX                  XXXXXXXX...............XXX....................XXXXXXXXXXX                                XXXXXXXXXXXXXX",
"XXXXXXX                  XXXXXXXX...............XXX....................XXXXXXXXXX                                  XXXXXXXXXXXXX",
"XXXXXXX                 XXXXXXXXX...............XX....................XXXXXXXXXX                                   XXXXXXXXXXXXX",
"XXXXXXX                 XXXXXXXX................X....................XXXXXXXXXX                                    XXXXXXXXXXXXX",
"XXXXXXX                 XXXXXXXX....................................XXXXXXXXXX                                     XXXXXXXXXXXXX",
"XXXXXXX                 XXXXXXXX...................................XXXXXXXXXX                                      XXXXXXXXXXXXX",
"XXXXXXX                XXXXXXXXX...................................XXXXXXXXXX                                      XXXXXXXXXXXXX",
"XXXXXXX                XXXXXXXX...................................XXXXXXXXXXXX                                     XXXXXXXXXXXXX",
"XXXXXXX                XXXXXXXX..................................XXXXXXXXXXXXXXX                                   XXXXXXXXXXXXX",
"XXXXXXX               XXXXXXXXX..................................XXXXXXXXXXXXXXXX                                  XXXXXXXXXXXXX",
"XXXXXXX               XXXXXXXX..................................XXXXXXXXXXXXXXXXXXX                                XXXXXXXXXXXXX",
"XXXXXXX               XXXXXXXX....................................XXXXXXXXXXXXXXXXXX                               XXXXXXXXXXXXX",
"XXXXXXX              XXXXXXXXX.......................................XXXXXXXXXXXXXXXX                              XXXXXXXXXXXXX",
"XXXXXXX              XXXXXXXX...........................................XXXXXXXXXXXXXXX                            XXXXXXXXXXXXX",
"XXXXXXX              XXXXXXXX.............................................XXXXXXXXXXXXXX                           XXXXXXXXXXXXX",
"XXXXXXX             XXXXXXXXX...............................................XXXXXXXXXXXXX                          XXXXXXXXXXXXX",
"XXXXXXX             XXXXXXXX..................................................XXXXXXXXXXXX                         XXXXXXXXXXXXX",
"XXXXXXX             XXXXXXXX...................................................XXXXXXXXXXXX                        XXXXXXXXXXXXX",
"XXXXXXX            XXXXXXXXX....................................................XXXXXXXXXXXX                      XXXXXXXXXXXXXX",
"XXXXXXXX           XXXXXXXX.......................................................XXXXXXXXXX                      XXXXXXXXXXXXXX",
"XXXXXXXX           XXXXXXXX........................................................XXXXXXXXXX                     XXXXXXXXXXXXXX",
"XXXXXXXX          XXXXXXXXX.........................................................XXXXXXXXXX                    XXXXXXXXXXXXXX",
"XXXXXXXX          XXXXXXXX...........................................................XXXXXXXXXX                   XXXXXXXXXXXXXX",
"XXXXXXXXX        XXXXXXXXX............................................................XXXXXXXXX                  XXXXXXXXXXXXXXX",
"XXXXXXXXX        XXXXXXXX.............................................................XXXXXXXXXX                 XXXXXXXXXXXXXXX",
"XXXXXXXXX        XXXXXXXX..............................................................XXXXXXXXXX                XXXXXXXXXXXXXXX",
"XXXXXXXXX       XXXXXXXXX...............................................................XXXXXXXXX                XXXXXXXXXXXXXXX",
"XXXXXXXXXX      XXXXXXXX.................XXXXXXXXXXXXXXXXXX..............................XXXXXXXXX              XXXXXXXXXXXXXXXX",
"XXXXXXXXXX     XXXXXXXXX.................XXXXXXXXXXXXXXXXXXXXXXX.........................XXXXXXXXX              XXXXXXXXXXXXXXXX",
"XXXXXXXXXXX    XXXXXXXX.................XXXXXXXXXXXXXXXXXXXXXXXXXXX.......................XXXXXXXXX            XXXXXXXXXXXXXXXXX",
"XXXXXXXXXXX   XXXXXXXXX................XXXXXXXXXXXXXXXXXXXXXXXXXXXXXXX....................XXXXXXXXX            XXXXXXXXXXXXXXXXX",
"XXXXXXXXXXX   XXXXXXXX................XXXXXXXXXXXXXXXXXXXXXXXXXXXXXXXXXX...................XXXXXXXXX           XXXXXXXXXXXXXXXXX",
"XXXXXXXXXXXX XXXXXXXXX................XXXXXXXXXXXXXXXXXXXXXXXXXXXXXXXXXXXX.................XXXXXXXXX          XXXXXXXXXXXXXXXXXX",
"XXXXXXXXXXXXXXXXXXXXXX...............XXXXXXXXXXXXXXXXXXXXXXXXXXXXXXXXXXXXXXX................XXXXXXXX          XXXXXXXXXXXXXXXXXX",
"XXXXXXXXXXXXXXXXXXXXX...............XXXXXXXXXXXXXXXXXXXXXXXXXXXXXXXXXXXXXXXXX...............XXXXXXXXX        XXXXXXXXXXXXXXXXXXX",
"XXXXXXXXXXXXXXXXXXXXX..............XXXXXXXXXX              XXXXXXXXXXXXXXXXXXXX..............XXXXXXXX        XXXXXXXXXXXXXXXXXXX",
"XXXXXXXXXXXXXXXXXXXX..............XXXXXXXXXX                   XXXXXXXXXXXXXXXXX.............XXXXXXXX       XXXXXXXXXXXXXXXXXXXX",
"XXXXXXXXXXXXXXXXXXXX.............XXXXXXXXXXX                      XXXXXXXXXXXXXXX............XXXXXXXXX     XXXXXXXXXXXXXXXXXXXXX",
"XXXXXXXXXXXXXXXXXXX.............XXXXXXXXXXX                         XXXXXXXXXXXXXXX...........XXXXXXXX     XXXXXXXXXXXXXXXXXXXXX",
"XXXXXXXXXXXXXXXXXXX.............XXXXXXXXXX                            XXXXXXXXXXXXXX..........XXXXXXXX    XXXXXXXXXXXXXXXXXXXXXX",
"XXXXXXXXXXXXXXXXXX.............XXXXXXXXXX                               XXXXXXXXXXXXX.........XXXXXXXXX   XXXXXXXXXXXXXXXXXXXXXX",
"XXXXXXXXXXXXXXXXX.............XXXXXXXXXX                                  XXXXXXXXXXXX.........XXXXXXXX  XXXXXXXXXXXXXXXXXXXXXXX",
"XXXXXXXXXXXXXXXXX............XXXXXXXXXX                                    XXXXXXXXXXXX........XXXXXXXX XXXXXXXXXXXXXXXXXXXXXXXX",
"XXXXXXXXXXXXXXXX...........XXXXXXXXXXXX                                     XXXXXXXXXXXX.......XXXXXXXXXXXXXXXXXXXXXXXXXXXXXXXXX",
"XXXXXXXXXXXXXXXX..........XXXXXXXXXXXX                                        XXXXXXXXXX.......XXXXXXXXXXXXXXXXXXXXXXXXXXXXXXXXX",
"XXXXXXXXXXXXXXX..........XXXXXXXXXXXX                                          XXXXXXXXXX.......XXXXXXXXXXXXXXXXXXXXXXXXXXXXXXXX",
"XXXXXXXXXXXXXX..........XXXXXXXXXXXX                                            XXXXXXXXXX......XXXXXXXXXXXXXXXXXXXXXXXXXXXXXXXX",
"XXXXXXXXXXXXXX.........XXXXXXXXXXXX                                              XXXXXXXXXX.....XXXXXXXXXXXXXXXXXXXXXXXXXXXXXXXX",
"XXXXXXXXXXXXX.........XXXXXXXXXXXX                                               XXXXXXXXXX.....XXXXXXXXXXXXXXXXXXXXXXXXXXXXXXXX",
"XXXXXXXXXXXXX.......XXXXXXXXXXXXX                                                 XXXXXXXXXX....XXXXXXXXXXXXXXXXXXXXXXXXXXXXXXXX",
"XXXXXXXXXXXX.......XXXXXXXXXXXX                                                    XXXXXXXXXX...XXXXXXXXXXXXXXXXXXXXXXXXXXXXXXXX",
"XXXXXXXXXXX......XXXXXXXXXXXXX                                                      XXXXXXXXX....XXXXXXXXXXXXXXXXXXXXXXXXXXXXXXX",
"XXXXXXXXXX......XXXXXXXXXXXXX                                                       XXXXXXXXXX...XXXXXXXXXXXXXXXXXXXXXXXXXXXXXXX",
"XXXXXXXXXX....XXXXXXXXXXXXXXX                                                        XXXXXXXXX...XXXXXXXXXXXXXXXXXXXXXXXXXXXXXXX",
"XXXXXXXXX....XXXXXXXXXXXXXXXXXX                                                       XXXXXXXXX..XXXXXXXXXXXXXXXXXXXXXXXXXXXXXXX",
"XXXXXXXX...XXXXXXXXXXXXXXXXXXXXX                                                      XXXXXXXXX..XXXXXXXXXXXXXXXXXXXXXXXXXXXXXXX",
"XXXXXXX..XXXXXXXXXXXXXXXXXXXXXXXXX                                                     XXXXXXXXX.XXXXXXXXXXXXXXXXXXXXXXXXXXXXXXX",
"XXXXXXXXXXXXXXXXXXXXXXXXXXXXXXXXXXXX                                                  XXXXXXXXXX.XXXXXXXXXXXXXXXXXXXXXXXXXXXXXXX",
"XXXXXXXXXXXXXXXXXXXXXXXXXXXXXXXXXXXXXX                                              XXXXXXXXXXXX.XXXXXXXXXXXXXXXXXXXXXXXXXXXXXXX",
"XXXXXXXXXXXXXXXXXXXXXXXXXXXXXXXXXXXXXXXX                                          XXXXXXXXXXXXXXXXXXXXXXXXXXXXXXXXXXXXXXXXXXXXXX",
"XXXXXXXXXXXXXXXXXXXXXXXXXXXXXXXXXXXXXXXXXX                                      XXXXXXXXXXXXXXXXXXXXXXXXXXXXXXXXXXXXXXXXXXXXXXXX",
"XXXXXXXXXXXXXXXXXXXXXXXXXXXXXXXXXXXXXXXXXXXXX                                XXXXXXXXXXXXXXXXXXXXXXXXXXXXXXXXXXXXXXXXXXXXXXXXXXX",
"XXXXXXXXXXXXXXXXXXXXXXXXXXXXXXXXXXXXXXXXXXXXXXXXX                        XXXXXXXXXXXXXXXXXXXXXXXXXXXXXXXXXXXXXXXXXXXXXXXXXXXXXXX",
"XXXXXXXXXXXXXXXXXXXXXXXXXXXXXXXXXXXXXXXXXXXXXXXXXXXXXXX            XXXXXXXXXXXXXXXXXXXXXXXXXXXXXXXXXXXXXXXXXXXXXXXXXXXXXXXXXXXXX",
"XXXXXXXXXXXXXXXXXXXXXXXXXXXXXXXXXXXXXXXXXXXXXXXXXXXXXXXXXXXXXXXXXXXXXXXXXXXXXXXXXXXXXXXXXXXXXXXXXXXXXXXXXXXXXXXXXXXXXXXXXXXXXXXX",
"XXXXXXXXXXXXXXXXXXXXXXXXXXXXXXXXXXXXXXXXXXXXXXXXXXXXXXXXXXXXXXXXXXXXXXXXXXXXXXXXXXXXXXXXXXXXXXXXXXXXXXXXXXXXXXXXXXXXXXXXXXXXXXXX",
"XXXXXXXXXXXXXXXXXXXXXXXXXXXXXXXXXXXXXXXXXXXXXXXXXXXXXXXXXXXXXXXXXXXXXXXXXXXXXXXXXXXXXXXXXXXXXXXXXXXXXXXXXXXXXXXXXXXXXXXXXXXXXXXX",
"XXXXXXXXXXXXXXXXXXXXXXXXXXXXXXXXXXXXXXXXXXXXXXXXXXXXXXXXXXXXXXXXXXXXXXXXXXXXXXXXXXXXXXXXXXXXXXXXXXXXXXXXXXXXXXXXXXXXXXXXXXXXXXXX",
"XXXXXXXXXXXXXXXXXXXXXXXXXXXXXXXXXXXXXXXXXXXXXXXXXXXXXXXXXXXXXXXXXXXXXXXXXXXXXXXXXXXXXXXXXXXXXXXXXXXXXXXXXXXXXXXXXXXXXXXXXXXXXXXX",
"XXXXXXXXXXXXXXXXXXXXXXXXXXXXXXXXXXXXXXXXXXXXXXXXXXXXXXXXXXXXXXXXXXXXXXXXXXXXXXXXXXXXXXXXXXXXXXXXXXXXXXXXXXXXXXXXXXXXXXXXXXXXXXXX"
};
